<mxfile host="Electron" agent="Mozilla/5.0 (Macintosh; Intel Mac OS X 10_15_7) AppleWebKit/537.36 (KHTML, like Gecko) draw.io/24.7.8 Chrome/128.0.6613.36 Electron/32.0.1 Safari/537.36" version="24.7.8">
  <diagram name="Page-1" id="R3nWZSlRvKRtFSl8L--L">
    <mxGraphModel dx="1368" dy="896" grid="1" gridSize="10" guides="1" tooltips="1" connect="1" arrows="1" fold="1" page="1" pageScale="1" pageWidth="1169" pageHeight="827" math="0" shadow="0">
      <root>
        <mxCell id="0" />
        <mxCell id="1" parent="0" />
        <mxCell id="Wjx-PrsfvaN2zsiy_lms-9" style="edgeStyle=orthogonalEdgeStyle;rounded=0;orthogonalLoop=1;jettySize=auto;html=1;" edge="1" parent="1" source="Wjx-PrsfvaN2zsiy_lms-1" target="Wjx-PrsfvaN2zsiy_lms-2">
          <mxGeometry relative="1" as="geometry" />
        </mxCell>
        <mxCell id="Wjx-PrsfvaN2zsiy_lms-1" value="Application code or OS change" style="rounded=0;whiteSpace=wrap;html=1;fillColor=#dae8fc;strokeColor=#6c8ebf;" vertex="1" parent="1">
          <mxGeometry x="120" y="160" width="120" height="60" as="geometry" />
        </mxCell>
        <mxCell id="Wjx-PrsfvaN2zsiy_lms-10" style="edgeStyle=orthogonalEdgeStyle;rounded=0;orthogonalLoop=1;jettySize=auto;html=1;entryX=0;entryY=0.5;entryDx=0;entryDy=0;" edge="1" parent="1" source="Wjx-PrsfvaN2zsiy_lms-2" target="Wjx-PrsfvaN2zsiy_lms-7">
          <mxGeometry relative="1" as="geometry" />
        </mxCell>
        <mxCell id="Wjx-PrsfvaN2zsiy_lms-2" value="Build application container or OS image" style="rounded=0;whiteSpace=wrap;html=1;fillColor=#dae8fc;strokeColor=#6c8ebf;" vertex="1" parent="1">
          <mxGeometry x="320" y="160" width="120" height="60" as="geometry" />
        </mxCell>
        <mxCell id="Wjx-PrsfvaN2zsiy_lms-12" style="edgeStyle=orthogonalEdgeStyle;rounded=0;orthogonalLoop=1;jettySize=auto;html=1;entryX=0;entryY=0.5;entryDx=0;entryDy=0;" edge="1" parent="1" source="Wjx-PrsfvaN2zsiy_lms-3" target="Wjx-PrsfvaN2zsiy_lms-4">
          <mxGeometry relative="1" as="geometry" />
        </mxCell>
        <mxCell id="Wjx-PrsfvaN2zsiy_lms-3" value="Update cloud and infrastructure configuration" style="rounded=0;whiteSpace=wrap;html=1;fillColor=#dae8fc;strokeColor=#6c8ebf;" vertex="1" parent="1">
          <mxGeometry x="720" y="160" width="120" height="60" as="geometry" />
        </mxCell>
        <mxCell id="Wjx-PrsfvaN2zsiy_lms-13" style="edgeStyle=orthogonalEdgeStyle;rounded=0;orthogonalLoop=1;jettySize=auto;html=1;entryX=0.5;entryY=0;entryDx=0;entryDy=0;" edge="1" parent="1" source="Wjx-PrsfvaN2zsiy_lms-4" target="Wjx-PrsfvaN2zsiy_lms-8">
          <mxGeometry relative="1" as="geometry" />
        </mxCell>
        <mxCell id="Wjx-PrsfvaN2zsiy_lms-4" value="Deploy cloud configuration or application to environment" style="rounded=0;whiteSpace=wrap;html=1;fillColor=#dae8fc;strokeColor=#6c8ebf;" vertex="1" parent="1">
          <mxGeometry x="920" y="160" width="120" height="60" as="geometry" />
        </mxCell>
        <mxCell id="Wjx-PrsfvaN2zsiy_lms-14" style="edgeStyle=orthogonalEdgeStyle;rounded=0;orthogonalLoop=1;jettySize=auto;html=1;entryX=0;entryY=0.5;entryDx=0;entryDy=0;" edge="1" parent="1" source="Wjx-PrsfvaN2zsiy_lms-5" target="Wjx-PrsfvaN2zsiy_lms-6">
          <mxGeometry relative="1" as="geometry" />
        </mxCell>
        <mxCell id="Wjx-PrsfvaN2zsiy_lms-5" value="Infrastructure code change" style="rounded=0;whiteSpace=wrap;html=1;fillColor=#dae8fc;strokeColor=#6c8ebf;" vertex="1" parent="1">
          <mxGeometry x="120" y="280" width="120" height="60" as="geometry" />
        </mxCell>
        <mxCell id="Wjx-PrsfvaN2zsiy_lms-15" style="edgeStyle=orthogonalEdgeStyle;rounded=0;orthogonalLoop=1;jettySize=auto;html=1;entryX=0.5;entryY=1;entryDx=0;entryDy=0;" edge="1" parent="1" source="Wjx-PrsfvaN2zsiy_lms-6" target="Wjx-PrsfvaN2zsiy_lms-3">
          <mxGeometry relative="1" as="geometry" />
        </mxCell>
        <mxCell id="Wjx-PrsfvaN2zsiy_lms-6" value="Infrastructure as code compliance scanning" style="rounded=0;whiteSpace=wrap;html=1;fillColor=#f8cecc;strokeColor=#b85450;" vertex="1" parent="1">
          <mxGeometry x="320" y="280" width="120" height="60" as="geometry" />
        </mxCell>
        <mxCell id="Wjx-PrsfvaN2zsiy_lms-11" style="edgeStyle=orthogonalEdgeStyle;rounded=0;orthogonalLoop=1;jettySize=auto;html=1;entryX=0;entryY=0.5;entryDx=0;entryDy=0;" edge="1" parent="1" source="Wjx-PrsfvaN2zsiy_lms-7" target="Wjx-PrsfvaN2zsiy_lms-3">
          <mxGeometry relative="1" as="geometry" />
        </mxCell>
        <mxCell id="Wjx-PrsfvaN2zsiy_lms-7" value="AMI or container image scanning" style="rounded=0;whiteSpace=wrap;html=1;fillColor=#f8cecc;strokeColor=#b85450;" vertex="1" parent="1">
          <mxGeometry x="520" y="160" width="120" height="60" as="geometry" />
        </mxCell>
        <mxCell id="Wjx-PrsfvaN2zsiy_lms-8" value="Post-deployment compliance scanning" style="rounded=0;whiteSpace=wrap;html=1;fillColor=#f8cecc;strokeColor=#b85450;" vertex="1" parent="1">
          <mxGeometry x="920" y="280" width="120" height="60" as="geometry" />
        </mxCell>
        <mxCell id="Wjx-PrsfvaN2zsiy_lms-16" value="Use&amp;nbsp;Trivy" style="text;html=1;align=center;verticalAlign=middle;whiteSpace=wrap;rounded=0;" vertex="1" parent="1">
          <mxGeometry x="550" y="120" width="60" height="30" as="geometry" />
        </mxCell>
        <mxCell id="Wjx-PrsfvaN2zsiy_lms-17" value="Use&amp;nbsp;terrascan" style="text;html=1;align=center;verticalAlign=middle;whiteSpace=wrap;rounded=0;" vertex="1" parent="1">
          <mxGeometry x="350" y="350" width="60" height="30" as="geometry" />
        </mxCell>
        <mxCell id="Wjx-PrsfvaN2zsiy_lms-18" value="Use&amp;nbsp;AWS GuardDuty" style="text;html=1;align=center;verticalAlign=middle;whiteSpace=wrap;rounded=0;" vertex="1" parent="1">
          <mxGeometry x="915" y="350" width="130" height="30" as="geometry" />
        </mxCell>
      </root>
    </mxGraphModel>
  </diagram>
</mxfile>
